<?xml version="1.0" encoding="UTF-8"?>
<svg id="Layer_2" data-name="Layer 2" xmlns="http://www.w3.org/2000/svg" viewBox="0 0 1287.42 292.93">
  <defs>
    <style>
      .cls-1 {
        fill: #fcba00;
      }

      .cls-1, .cls-2, .cls-3, .cls-4 {
        stroke-width: 0px;
      }

      .cls-2 {
        fill: #fff;
      }

      .cls-3 {
        fill: #f99f00;
      }

      .cls-4 {
        fill: #ffd251;
      }
    </style>
  </defs>
  <g id="Layer_1-2" data-name="Layer 1">
    <g>
      <g>
        <g>
          <path class="cls-2" d="m320.89,70.62h36.14v61.27h69.17v-61.27h36.14v159.64h-36.14v-65.58h-69.17v65.58h-36.14V70.62Z"/>
          <path class="cls-2" d="m483.45,174.01c0-8.29,1.47-16.07,4.43-23.34,2.95-7.26,7.06-13.6,12.33-19.03,5.27-5.42,11.61-9.69,19.03-12.81,7.42-3.11,15.59-4.67,24.53-4.67s17.07,1.56,24.41,4.67c7.34,3.11,13.64,7.38,18.91,12.81,5.27,5.43,9.37,11.77,12.33,19.03,2.95,7.26,4.43,15.04,4.43,23.34s-1.48,16.08-4.43,23.34c-2.95,7.26-7.06,13.6-12.33,19.03-5.27,5.43-11.57,9.73-18.91,12.92-7.34,3.19-15.48,4.79-24.41,4.79s-17.11-1.6-24.53-4.79-13.76-7.5-19.03-12.92c-5.27-5.42-9.38-11.77-12.33-19.03-2.95-7.26-4.43-15.04-4.43-23.34Zm60.31,30.16c4.31,0,8.14-.84,11.49-2.51,3.35-1.68,6.18-3.95,8.5-6.82,2.31-2.87,4.03-6.1,5.15-9.69,1.11-3.59,1.68-7.3,1.68-11.13s-.56-7.54-1.68-11.13c-1.12-3.59-2.83-6.78-5.15-9.57-2.31-2.79-5.15-5.03-8.5-6.7-3.35-1.68-7.18-2.51-11.49-2.51s-8.18.84-11.61,2.51c-3.43,1.68-6.26,3.91-8.5,6.7-2.24,2.79-3.95,5.98-5.15,9.57-1.2,3.59-1.8,7.3-1.8,11.13s.6,7.54,1.8,11.13c1.2,3.59,2.91,6.82,5.15,9.69,2.23,2.87,5.06,5.15,8.5,6.82,3.43,1.68,7.3,2.51,11.61,2.51Z"/>
          <path class="cls-2" d="m628.99,195.55c3.67,3.35,8.5,6.14,14.48,8.38,5.98,2.24,11.77,3.35,17.35,3.35,5.1,0,9.33-.64,12.69-1.92,3.35-1.27,5.03-3.75,5.03-7.42,0-1.44-.36-2.75-1.08-3.95-.72-1.2-2.03-2.31-3.95-3.35-1.91-1.04-4.59-2.11-8.02-3.23-3.43-1.11-7.78-2.39-13.04-3.83-4.31-1.11-8.58-2.59-12.8-4.43-4.23-1.83-7.98-4.11-11.25-6.82-3.27-2.71-5.91-5.98-7.9-9.81-2-3.83-2.99-8.29-2.99-13.4s1.2-10.01,3.59-14.24c2.39-4.23,5.7-7.9,9.93-11.01,4.23-3.11,9.25-5.5,15.08-7.18,5.82-1.68,12.09-2.51,18.79-2.51,9.57,0,17.95,1.08,25.13,3.23,7.18,2.15,13.8,5.31,19.87,9.45l-14.6,22.74c-3.67-2.39-7.86-4.55-12.57-6.46-4.71-1.92-10.02-2.87-15.92-2.87-5.27,0-9.09.76-11.49,2.27-2.39,1.52-3.59,3.55-3.59,6.1,0,3.67,2.47,6.38,7.42,8.14,4.94,1.76,11.65,3.75,20.1,5.98,11.49,3.19,19.82,7.58,25.01,13.16,5.18,5.59,7.78,13.01,7.78,22.26,0,6.22-1.4,11.57-4.19,16.04-2.79,4.47-6.54,8.18-11.25,11.13-4.71,2.95-10.05,5.15-16.04,6.58s-12.09,2.15-18.31,2.15c-10.05,0-19.55-1.36-28.48-4.07-8.94-2.71-16.2-6.86-21.78-12.45l16.99-22.02Z"/>
          <path class="cls-2" d="m738.49,145.05h-17.71v-27.05h17.71v-33.99h34.47v33.99h28.96v27.05h-28.96v44.28c0,5.43,1.08,9.61,3.23,12.57,2.15,2.95,5.54,4.43,10.17,4.43,3.51,0,6.54-.6,9.1-1.79,2.55-1.2,4.94-2.59,7.18-4.19l13.88,21.06c-10.85,8.62-22.66,12.92-35.42,12.92-7.98,0-14.68-1.16-20.1-3.47-5.43-2.31-9.81-5.5-13.16-9.57-3.35-4.07-5.74-8.98-7.18-14.72s-2.15-12.12-2.15-19.15v-42.36Z"/>
          <path class="cls-2" d="m893.94,219.73c-3.83,4.47-8.66,7.9-14.48,10.29-5.83,2.39-12.33,3.59-19.51,3.59-3.99,0-8.18-.56-12.57-1.68-4.39-1.12-8.46-2.99-12.21-5.62-3.75-2.63-6.86-6.18-9.33-10.65-2.48-4.47-3.71-10.05-3.71-16.75s1.32-12.36,3.95-17.47c2.63-5.1,6.26-9.37,10.89-12.8,4.63-3.43,10.09-6.02,16.4-7.78,6.3-1.75,13.12-2.63,20.46-2.63,3.99,0,8.02.08,12.09.24,4.07.16,6.74.4,8.02.72v-2.39c0-2.87-.6-5.3-1.8-7.3-1.2-1.99-2.79-3.67-4.79-5.03-2-1.35-4.27-2.31-6.82-2.87-2.55-.56-5.27-.84-8.14-.84-7.66,0-14,.96-19.03,2.87-5.03,1.91-9.3,4.07-12.81,6.46l-14.12-21.06c2.39-1.75,5.1-3.51,8.14-5.27,3.03-1.75,6.62-3.35,10.77-4.79,4.15-1.44,8.81-2.59,14-3.47,5.18-.88,11.13-1.32,17.83-1.32,17.07,0,29.68,4.59,37.82,13.76,8.14,9.18,12.21,21.5,12.21,36.98v65.34h-32.31l-.96-10.53Zm0-39.01c-.8-.16-2.31-.36-4.55-.6-2.24-.24-4.79-.36-7.66-.36-9.57,0-16.36,1.36-20.34,4.07-3.99,2.71-5.98,6.54-5.98,11.49,0,9.26,5.58,13.88,16.75,13.88,2.71,0,5.39-.44,8.02-1.32,2.63-.88,4.94-2.11,6.94-3.71,1.99-1.59,3.63-3.59,4.91-5.98,1.28-2.39,1.92-5.18,1.92-8.38v-9.09Z"/>
          <path class="cls-2" d="m950,70.62h34.47v159.64h-34.47V70.62Z"/>
          <path class="cls-2" d="m1008.18,118.01h34.46v112.25h-34.46v-112.25Z"/>
          <path class="cls-2" d="m1066.34,70.62h34.47v82.81l34.23-35.42h39.01l-40.21,41.41,45.71,70.85h-39.97l-28.72-47.39-10.05,10.29v37.1h-34.47V70.62Z"/>
          <path class="cls-2" d="m1254.15,219.73c-3.83,4.47-8.66,7.9-14.48,10.29-5.83,2.39-12.33,3.59-19.51,3.59-3.99,0-8.18-.56-12.57-1.68-4.39-1.12-8.46-2.99-12.21-5.62-3.75-2.63-6.86-6.18-9.33-10.65-2.48-4.47-3.71-10.05-3.71-16.75s1.32-12.36,3.95-17.47c2.63-5.1,6.26-9.37,10.89-12.8,4.63-3.43,10.09-6.02,16.4-7.78,6.3-1.75,13.12-2.63,20.46-2.63,3.99,0,8.02.08,12.09.24,4.07.16,6.74.4,8.02.72v-2.39c0-2.87-.6-5.3-1.8-7.3-1.2-1.99-2.79-3.67-4.79-5.03-2-1.35-4.27-2.31-6.82-2.87-2.55-.56-5.27-.84-8.14-.84-7.66,0-14,.96-19.03,2.87-5.03,1.91-9.3,4.07-12.81,6.46l-14.12-21.06c2.39-1.75,5.1-3.51,8.14-5.27,3.03-1.75,6.62-3.35,10.77-4.79,4.15-1.44,8.81-2.59,14-3.47,5.18-.88,11.13-1.32,17.83-1.32,17.07,0,29.68,4.59,37.82,13.76,8.14,9.18,12.21,21.5,12.21,36.98v65.34h-32.31l-.96-10.53Zm0-39.01c-.8-.16-2.31-.36-4.55-.6-2.24-.24-4.79-.36-7.66-.36-9.57,0-16.36,1.36-20.34,4.07-3.99,2.71-5.98,6.54-5.98,11.49,0,9.26,5.58,13.88,16.75,13.88,2.71,0,5.39-.44,8.02-1.32,2.63-.88,4.94-2.11,6.94-3.71,1.99-1.59,3.63-3.59,4.91-5.98,1.28-2.39,1.92-5.18,1.92-8.38v-9.09Z"/>
        </g>
        <rect class="cls-3" x="1008.19" y="70.55" width="34.46" height="34.46"/>
      </g>
      <g>
        <g>
          <polygon class="cls-4" points="249.4 156.39 249.4 156.43 208.72 180.18 194.52 188.47 194.48 188.45 139.57 156.47 139.57 156.39 194.48 124.34 208.72 132.64 249.4 156.39"/>
          <polygon class="cls-3" points="249.4 156.39 249.4 220.44 194.48 252.49 194.48 188.45 194.52 188.43 249.4 156.39"/>
          <polygon class="cls-1" points="194.5 188.44 194.5 252.53 154.47 229.16 139.65 220.51 139.58 220.48 139.57 156.39 194.5 188.44"/>
        </g>
        <g>
          <polygon class="cls-4" points="109.83 156.49 109.83 156.53 69.15 180.28 54.95 188.57 54.91 188.55 0 156.56 0 156.49 54.91 124.43 69.15 132.74 109.83 156.49"/>
          <polygon class="cls-3" points="109.83 156.48 109.83 220.54 54.92 252.59 54.92 188.55 54.96 188.53 109.83 156.48"/>
          <polygon class="cls-1" points="54.94 188.54 54.94 252.62 14.91 229.26 .09 220.61 .02 220.58 0 156.48 54.94 188.54"/>
        </g>
        <g>
          <polygon class="cls-4" points="179.09 196.79 179.09 196.83 138.41 220.59 124.21 228.87 124.17 228.85 69.26 196.87 69.26 196.79 124.17 164.74 138.41 173.05 179.09 196.79"/>
          <polygon class="cls-3" points="179.09 196.79 179.09 260.85 124.18 292.89 124.18 228.85 124.22 228.83 179.09 196.79"/>
          <polygon class="cls-1" points="124.2 228.85 124.2 292.93 84.17 269.56 69.35 260.92 69.28 260.89 69.26 196.79 124.2 228.85"/>
        </g>
        <g>
          <polygon class="cls-4" points="179.22 32.05 179.22 32.09 138.54 55.85 124.35 64.13 124.31 64.11 69.39 32.13 69.39 32.05 124.31 0 138.54 8.31 179.22 32.05"/>
          <polygon class="cls-3" points="179.22 32.05 179.22 96.11 124.31 128.16 124.31 64.12 124.35 64.09 179.22 32.05"/>
          <polygon class="cls-1" points="124.33 64.11 124.33 128.19 84.3 104.83 69.48 96.18 69.41 96.15 69.39 32.05 124.33 64.11"/>
        </g>
        <g>
          <polygon class="cls-4" points="249.4 74.48 249.4 74.52 208.72 98.27 194.52 106.56 194.48 106.54 139.57 74.55 139.57 74.47 194.48 42.42 208.72 50.73 249.4 74.48"/>
          <polygon class="cls-3" points="249.4 74.47 249.4 138.53 194.48 170.58 194.48 106.54 194.52 106.51 249.4 74.47"/>
          <polygon class="cls-1" points="194.5 106.53 194.5 170.61 154.47 147.25 139.65 138.6 139.58 138.57 139.57 74.47 194.5 106.53"/>
        </g>
        <g>
          <polygon class="cls-4" points="109.83 74.57 109.83 74.61 69.15 98.37 54.95 106.66 54.91 106.64 0 74.65 0 74.57 54.91 42.52 69.15 50.83 109.83 74.57"/>
          <polygon class="cls-3" points="109.83 74.57 109.83 138.63 54.92 170.68 54.92 106.64 54.96 106.61 109.83 74.57"/>
          <polygon class="cls-1" points="54.94 106.63 54.94 170.71 14.91 147.35 .09 138.7 .02 138.67 0 74.57 54.94 106.63"/>
        </g>
        <g>
          <polygon class="cls-4" points="179.09 114.88 179.09 114.92 138.41 138.67 124.21 146.96 124.17 146.94 69.26 114.95 69.26 114.88 124.17 82.83 138.41 91.13 179.09 114.88"/>
          <polygon class="cls-3" points="179.09 114.88 179.09 178.93 124.18 210.98 124.18 146.94 124.22 146.92 179.09 114.88"/>
          <polygon class="cls-1" points="124.2 146.93 124.2 211.02 84.17 187.65 69.35 179 69.28 178.97 69.26 114.88 124.2 146.93"/>
        </g>
      </g>
    </g>
  </g>
</svg>